<?xml version="1.0" standalone="no"?>
<!DOCTYPE svg PUBLIC "-//W3C//DTD SVG 20010904//EN"
 "http://www.w3.org/TR/2001/REC-SVG-20010904/DTD/svg10.dtd">
<svg version="1.0" xmlns="http://www.w3.org/2000/svg"
 width="256.000000pt" height="256.000000pt" viewBox="0 0 256.000000 256.000000"
 preserveAspectRatio="xMidYMid meet">
<metadata>
Created by potrace 1.11, written by Peter Selinger 2001-2013
</metadata>
<g transform="translate(0.000000,256.000000) scale(0.100000,-0.100000)"
fill="#000000" stroke="none">
<path d="M1028 2334 c-2 -1 -44 -5 -93 -8 -50 -3 -101 -8 -115 -11 -54 -11
-76 -15 -105 -20 -52 -8 -68 -12 -130 -31 -33 -10 -62 -18 -65 -19 -26 -6
-107 -54 -137 -81 l-37 -34 0 -130 c1 -117 -1 -129 -15 -117 -14 11 -14 10 -2
-6 8 -10 16 -34 18 -54 4 -34 3 -35 -14 -22 -17 13 -17 13 -4 -4 8 -10 16 -34
18 -54 4 -34 3 -35 -14 -22 -17 13 -17 13 -4 -4 8 -10 16 -34 18 -54 4 -34 3
-35 -14 -22 -17 13 -17 13 -4 -4 18 -23 26 -111 9 -101 -7 5 -8 3 -2 -7 5 -8
9 -150 10 -316 0 -274 -1 -301 -15 -290 -14 11 -14 10 -2 -6 8 -10 16 -34 18
-54 4 -34 3 -35 -14 -22 -17 13 -17 13 -4 -4 8 -10 16 -34 18 -54 4 -34 3 -35
-14 -22 -17 13 -17 13 -4 -4 8 -10 16 -34 18 -54 4 -34 3 -35 -14 -22 -17 13
-17 13 -4 -4 17 -21 24 -67 10 -67 -5 0 -9 -5 -9 -11 0 -5 4 -8 8 -5 5 3 9 -8
10 -25 0 -20 -3 -27 -11 -22 -8 5 -8 2 0 -9 7 -8 10 -18 6 -21 -3 -4 -1 -7 5
-7 6 0 9 -9 7 -20 -2 -11 0 -18 4 -16 4 3 14 -5 21 -18 7 -13 23 -29 36 -35
13 -6 24 -19 24 -28 0 -15 2 -16 10 -3 8 13 13 9 12 -10 0 -3 9 -6 21 -7 12 0
40 -9 62 -19 22 -10 49 -19 60 -21 10 -2 22 -7 25 -11 3 -4 20 -9 39 -10 40
-3 54 -10 45 -23 -3 -5 -10 -6 -16 -3 -7 5 -8 2 -4 -5 6 -9 12 -9 25 3 21 19
38 20 44 4 4 -9 6 -9 6 -1 1 14 41 5 41 -9 0 -7 5 -6 13 1 8 6 17 8 21 4 9 -9
28 -12 104 -15 48 -2 62 -6 62 -18 0 -10 3 -11 8 -4 8 13 224 16 216 3 -2 -4
0 -11 6 -14 6 -4 9 -1 8 7 -2 9 10 13 44 13 25 0 44 3 41 7 -2 5 0 8 5 8 5 0
14 -10 21 -23 10 -21 11 -21 6 -1 -5 19 -2 21 25 19 17 -1 30 2 30 9 0 6 5 4
10 -4 5 -8 10 -10 10 -5 0 6 8 11 18 12 9 1 34 4 55 7 22 4 37 2 37 -4 0 -5 4
-10 10 -10 5 0 6 7 3 17 -4 10 -2 14 5 9 6 -3 13 -2 16 3 3 5 19 8 36 7 16 -1
30 1 30 5 0 13 44 18 52 6 5 -7 8 -8 8 -1 0 12 50 38 57 30 3 -3 12 2 21 10
12 13 16 13 23 2 7 -10 9 -8 9 6 0 11 3 16 6 13 4 -4 20 3 35 14 16 11 29 18
29 14 0 -3 7 0 15 7 54 46 75 67 75 78 0 6 4 8 10 5 6 -4 7 1 3 11 -4 10 -2
15 4 11 5 -3 10 0 10 8 0 8 -3 15 -6 15 -3 0 -6 15 -6 34 0 19 4 32 9 28 5 -3
5 1 0 9 -11 19 -12 60 -1 83 7 13 6 16 -3 11 -9 -6 -9 -3 -1 12 6 11 7 23 4
27 -12 11 -11 76 1 76 7 0 8 3 1 8 -10 6 -11 18 -6 47 1 6 6 3 11 -5 9 -13 10
-13 10 0 0 8 11 20 25 27 19 8 24 8 19 0 -3 -7 2 -3 10 7 9 11 18 17 22 14 3
-4 14 2 25 13 11 11 24 17 29 14 6 -4 13 1 16 9 3 9 15 16 26 16 10 0 16 5 13
10 -3 6 -1 10 6 10 21 0 99 90 99 116 0 13 6 24 13 24 8 0 8 3 -2 9 -13 8 -13
12 0 27 8 10 9 15 3 11 -6 -3 -11 1 -11 9 0 9 6 13 16 9 14 -4 14 -4 1 8 -21
17 -25 41 -5 33 11 -4 14 -2 8 7 -12 19 -11 187 1 187 7 0 8 3 1 8 -13 9 -15
53 -2 45 6 -3 7 -1 3 6 -12 18 -12 201 -1 201 7 0 7 3 0 8 -5 4 -10 27 -10 52
0 52 -17 128 -36 158 -15 23 -79 62 -103 62 -9 0 -16 4 -16 8 0 4 -41 4 -91
-1 -50 -4 -94 -6 -97 -3 -3 4 3 13 14 21 11 9 13 14 5 13 -11 -2 -14 9 -13 47
0 50 -19 100 -47 122 -16 13 -121 67 -131 68 -3 1 -32 9 -65 20 -71 22 -68 21
-125 30 -24 4 -48 9 -52 11 -4 3 -31 7 -60 9 -29 3 -71 8 -93 11 -40 6 -382
14 -387 8z m1092 -564 c5 0 7 6 4 14 -4 10 2 12 20 9 37 -7 52 -29 35 -50 -10
-11 -10 -14 -1 -9 14 9 13 21 17 -211 2 -125 -1 -181 -8 -176 -6 4 -7 1 -1 -8
13 -20 14 -70 1 -62 -6 4 -7 1 -2 -7 15 -24 12 -89 -5 -96 -8 -4 -18 -6 -22
-6 -5 1 -8 -2 -8 -8 0 -13 -58 -42 -71 -35 -5 4 -8 1 -7 -6 2 -7 -1 -13 -7
-14 -5 0 -20 -6 -33 -13 -35 -20 -51 0 -28 37 6 10 5 12 -2 7 -8 -5 -12 3 -12
23 0 18 5 31 13 32 10 0 10 2 0 6 -7 2 -13 15 -13 27 0 12 6 28 13 35 9 11 9
12 0 7 -17 -9 -16 136 1 146 8 6 8 8 -1 8 -10 0 -13 42 -13 176 0 103 4 173 9
170 5 -4 11 0 14 6 2 7 8 10 12 6 4 -4 2 -15 -6 -25 -12 -15 -12 -16 1 -8 8 6
18 10 22 10 3 0 10 4 15 9 5 5 2 6 -6 1 -9 -5 -12 -3 -9 6 3 8 14 14 26 14 11
0 24 4 29 8 4 5 9 2 11 -7 2 -9 7 -16 12 -16z"/>
<path d="M2080 1766 c0 -2 8 -10 18 -17 15 -13 16 -12 3 4 -13 16 -21 21 -21
13z"/>
<path d="M310 1346 c0 -2 7 -7 16 -10 8 -3 12 -2 9 4 -6 10 -25 14 -25 6z"/>
<path d="M310 1106 c0 -2 7 -7 16 -10 8 -3 12 -2 9 4 -6 10 -25 14 -25 6z"/>
<path d="M360 440 c-9 -6 -10 -10 -3 -10 6 0 15 5 18 10 8 12 4 12 -15 0z"/>
<path d="M1890 380 c0 -5 5 -10 11 -10 5 0 7 5 4 10 -3 6 -8 10 -11 10 -2 0
-4 -4 -4 -10z"/>
<path d="M1622 284 c10 -10 20 -16 22 -13 3 3 -5 11 -17 18 -21 13 -21 12 -5
-5z"/>
<path d="M1490 259 c0 -5 5 -7 10 -4 6 3 10 8 10 11 0 2 -4 4 -10 4 -5 0 -10
-5 -10 -11z"/>
<path d="M953 245 c0 -8 4 -12 9 -9 5 3 6 10 3 15 -9 13 -12 11 -12 -6z"/>
<path d="M1036 238 c3 -5 10 -6 15 -3 13 9 11 12 -6 12 -8 0 -12 -4 -9 -9z"/>
<path d="M1153 235 c0 -8 4 -12 9 -9 4 3 8 9 8 15 0 5 -4 9 -8 9 -5 0 -9 -7
-9 -15z"/>
</g>
</svg>
